<svg id="_" data-name="ͼ" xmlns="http://www.w3.org/2000/svg" viewBox="0 0 328 338.22"><defs><style>.cls-1{fill:#e60012;}.cls-1,.cls-2,.cls-3,.cls-4{fill-rule:evenodd;}.cls-2{fill:#af4284;}.cls-3{fill:#f08300;}.cls-4{fill:#fdd000;}.cls-5{fill:#fff;}</style></defs><title>画板 2 副本</title><path class="cls-1" d="M35.68,229.65,85.15,144l.81-1.4a1060.79,1060.79,0,0,1,167.29,40.26C205,187.78,122,200,35.68,229.65Z"/><path class="cls-2" d="M267.72,187.75l53.38,92.46H6.9c46.09-22.92,140-65.06,257.84-93.49Z"/><path class="cls-3" d="M213.25,93.4,242.45,144l4.47,7.74c-56.2-12.2-109.73-16.35-149.67-17.41A714.33,714.33,0,0,1,213.25,93.4Z"/><path class="cls-4" d="M163.8,7.75,200.29,71c-40.29,13.74-75,32.52-101.56,49.5Z"/><path class="cls-5" d="M18.9,301.21v28.62H10.15V291.75a5.94,5.94,0,0,1,1.24-4,4.23,4.23,0,0,1,3.37-1.45,4.43,4.43,0,0,1,1.86.39A7.16,7.16,0,0,1,18.48,288l28.15,27V286.43h8.81v38.5A5.92,5.92,0,0,1,54.17,329a4.26,4.26,0,0,1-3.34,1.42A5.32,5.32,0,0,1,47,328.65Z"/><path class="cls-5" d="M74.36,329.83v-43h9.22v43Z"/><path class="cls-5" d="M122.67,329.83A20.64,20.64,0,0,1,103,316.59a23.23,23.23,0,0,1-1.6-8.69,22.5,22.5,0,0,1,1.6-8.64,19.25,19.25,0,0,1,4.43-6.65,20,20,0,0,1,6.71-4.26,23.3,23.3,0,0,1,8.49-1.5h23.71v9.22H122.67a12.24,12.24,0,0,0-4.79.92,11.53,11.53,0,0,0-3.79,2.54,11.74,11.74,0,0,0-2.51,3.9,13.12,13.12,0,0,0-.92,4.94,13.31,13.31,0,0,0,.89,4.91,11.17,11.17,0,0,0,6.3,6.41,12.5,12.5,0,0,0,4.82.92h23.71v9.22Z"/><path class="cls-5" d="M163.7,330v-43.1h9.22V330Zm33.59,0V312h-19v-7.93h19v-17.2h9.22V330Z"/><path class="cls-5" d="M225.61,329.83v-43h9.22v43Z"/><path class="cls-5" d="M253.93,329.83v-43H293v9.22H263.15v24.54h29.92v9.22Zm14.54-18.21v-7.27H291.3v7.27Z"/><path class="cls-5" d="M311.11,329.83v-43h9.22v43Z"/></svg>