<svg id="图层_1" data-name="图层 1" xmlns="http://www.w3.org/2000/svg" viewBox="0 0 595.28 841.89"><defs><style>.cls-1{fill:#e60012;}.cls-2{fill:#af4284;}.cls-3{fill:#f08300;}.cls-4{fill:#fdd000;}</style></defs><title>画板 1</title><path class="cls-1" d="M285,425.51l5.29-9.16.09-.15a112.29,112.29,0,0,1,17.89,4.3A107.64,107.64,0,0,0,285,425.51Z"/><path class="cls-2" d="M309.79,421l5.7,9.88h-33.6a134.69,134.69,0,0,1,27.58-10Z"/><path class="cls-3" d="M304,410.94l3.12,5.41.48.82a88.57,88.57,0,0,0-16-1.86A76.69,76.69,0,0,1,304,410.94Z"/><path class="cls-4" d="M298.67,401.78l3.91,6.76a50.67,50.67,0,0,0-10.86,5.29Z"/></svg>