<svg id="图层_1" data-name="图层 1" xmlns="http://www.w3.org/2000/svg" xmlns:xlink="http://www.w3.org/1999/xlink" viewBox="0 0 150 58"><defs><style>.cls-1{fill:url(#未命名的渐变_16);}.cls-2{fill:url(#未命名的渐变_16-2);}.cls-3{fill:url(#未命名的渐变_16-3);}.cls-4{fill:url(#未命名的渐变_16-4);}.cls-5{fill:url(#未命名的渐变_16-5);}.cls-6{fill:url(#未命名的渐变_16-6);}.cls-7{fill:url(#未命名的渐变_16-7);}</style><linearGradient id="未命名的渐变_16" x1="17.51" y1="85.67" x2="17.51" y2="-28.35" gradientUnits="userSpaceOnUse"><stop offset="0" stop-color="#fff"/><stop offset="0.32" stop-color="#fbfbfb"/><stop offset="0.65" stop-color="#eeeeef"/><stop offset="1" stop-color="#d9d9da"/><stop offset="1" stop-color="#d9d9da"/></linearGradient><linearGradient id="未命名的渐变_16-2" x1="37.88" y1="85.67" x2="37.88" y2="-28.35" xlink:href="#未命名的渐变_16"/><linearGradient id="未命名的渐变_16-3" x1="57.51" y1="85.67" x2="57.51" y2="-28.35" xlink:href="#未命名的渐变_16"/><linearGradient id="未命名的渐变_16-4" x1="86.78" y1="85.67" x2="86.78" y2="-28.35" xlink:href="#未命名的渐变_16"/><linearGradient id="未命名的渐变_16-5" x1="106.51" y1="85.67" x2="106.51" y2="-28.35" xlink:href="#未命名的渐变_16"/><linearGradient id="未命名的渐变_16-6" x1="125.16" y1="85.67" x2="125.16" y2="-28.35" xlink:href="#未命名的渐变_16"/><linearGradient id="未命名的渐变_16-7" x1="143.18" y1="85.67" x2="143.18" y2="-28.35" xlink:href="#未命名的渐变_16"/></defs><title>画板 1</title><path class="cls-1" d="M9.27,24.7v17H4.08V19.09a3.56,3.56,0,0,1,.74-2.37,2.51,2.51,0,0,1,2-.86,2.67,2.67,0,0,1,1.1.23A4.53,4.53,0,0,1,9,16.88l16.68,16v-17h5.23V38.75a3.46,3.46,0,0,1-.76,2.42,2.53,2.53,0,0,1-2,.85A3.16,3.16,0,0,1,26,41Z"/><path class="cls-2" d="M35.14,41.66V16.18h5.47V41.66Z"/><path class="cls-3" d="M56.77,41.66a12.58,12.58,0,0,1-5-1,12.24,12.24,0,0,1-6.61-6.86,13.83,13.83,0,0,1-.94-5.15,13.41,13.41,0,0,1,.94-5.12,11.4,11.4,0,0,1,2.63-3.94,11.82,11.82,0,0,1,4-2.53,13.88,13.88,0,0,1,5-.89H70.83v5.47H56.77a7.33,7.33,0,0,0-2.84.54,6.81,6.81,0,0,0-2.24,1.51A6.91,6.91,0,0,0,50.2,26a8.31,8.31,0,0,0,0,5.84,6.73,6.73,0,0,0,1.47,2.29,6.65,6.65,0,0,0,2.26,1.51,7.47,7.47,0,0,0,2.86.55H70.83v5.46Z"/><path class="cls-4" d="M74.09,41.73V16.18h5.47V41.73Zm19.91,0V31.08H82.71v-4.7H94V16.18h5.47V41.73Z"/><path class="cls-5" d="M103.78,41.66V16.18h5.47V41.66Z"/><path class="cls-6" d="M113.56,41.66V16.18h23.17v5.47H119V36.2h17.74v5.46Zm8.62-10.79V26.56h13.53v4.31Z"/><path class="cls-7" d="M140.45,41.66V16.18h5.47V41.66Z"/></svg>